<svg width="25" height="27" viewBox="0 0 25 27" fill="none" xmlns="http://www.w3.org/2000/svg">
<path d="M23.2642 4.96004L13.7478 0.994896C13.4579 0.874643 13.1472 0.812744 12.8333 0.812744C12.5195 0.812744 12.2088 0.874643 11.9189 0.994896L2.40253 4.96004C1.51533 5.32682 0.935425 6.1942 0.935425 7.15575C0.935425 16.9943 6.61054 23.7945 11.9139 26.0051C12.4988 26.2479 13.158 26.2479 13.7429 26.0051C17.9905 24.2356 24.7263 18.1243 24.7263 7.15575C24.7263 6.1942 24.1464 5.32682 23.2642 4.96004ZM13.1382 24.5429C12.9399 24.6222 12.7218 24.6222 12.5285 24.5429C7.67618 22.6198 2.52148 15.8791 2.52148 7.15575C2.52148 6.83358 2.71479 6.5461 3.00722 6.42219L12.5236 2.45704C12.7169 2.37774 12.9399 2.37774 13.1332 2.45704L22.6496 6.42219C22.947 6.5461 23.1403 6.83358 23.1353 7.15575C23.1403 15.8791 17.9856 22.6198 13.1382 24.5429ZM19.8888 8.43451C19.6559 8.20155 19.2792 8.20155 19.0462 8.42955L10.9474 16.4639L7.52748 13.0192C7.29453 12.7863 6.91784 12.7863 6.68489 13.0143L6.26359 13.4356C6.03064 13.6685 6.03064 14.0452 6.25864 14.2781L10.5162 18.5704C10.7492 18.8034 11.1259 18.8034 11.3588 18.5754L20.3052 9.70335C20.5381 9.4704 20.5381 9.09371 20.3101 8.86076L19.8888 8.43451Z" fill="white"/>
</svg>
