<svg width="26" height="27" viewBox="0 0 26 27" fill="none" xmlns="http://www.w3.org/2000/svg">
<path d="M24.0308 4.5621L14.1191 0.43222C13.8172 0.306971 13.4935 0.2425 13.1666 0.2425C12.8398 0.2425 12.5161 0.306971 12.2142 0.43222L2.30247 4.5621C1.37841 4.94412 0.774414 5.84753 0.774414 6.84903C0.774414 17.0963 6.68531 24.1791 12.209 26.4815C12.8182 26.7344 13.5048 26.7344 14.1139 26.4815C18.5381 24.6385 25.5537 18.2733 25.5537 6.84903C25.5537 5.84753 24.9497 4.94412 24.0308 4.5621ZM13.4841 24.9586C13.2776 25.0412 13.0505 25.0412 12.8492 24.9586C7.79522 22.9556 2.42637 15.9348 2.42637 6.84903C2.42637 6.51347 2.6277 6.21406 2.93228 6.085L12.844 1.95511C13.0453 1.87252 13.2776 1.87252 13.479 1.95511L23.3907 6.085C23.7004 6.21406 23.9018 6.51347 23.8966 6.84903C23.9018 15.9348 18.5329 22.9556 13.4841 24.9586ZM20.5153 8.18091C20.2726 7.93828 19.8803 7.93828 19.6377 8.17575L11.2024 16.5439L7.64035 12.9561C7.39771 12.7135 7.00538 12.7135 6.76274 12.9509L6.32395 13.3897C6.08131 13.6324 6.08131 14.0247 6.31878 14.2673L10.7532 18.7379C10.9959 18.9806 11.3882 18.9806 11.6308 18.7431L20.9489 9.50248C21.1915 9.25985 21.1915 8.86751 20.9541 8.62488L20.5153 8.18091Z" fill="#515456"/>
</svg>
