<svg id="Layer_1" data-name="Layer 1" xmlns="http://www.w3.org/2000/svg" viewBox="0 0 627.86 357.1"><defs><style>.cls-1,.cls-2{fill:#515456;}.cls-1{stroke:#515456;stroke-miterlimit:10;stroke-width:3px;}</style></defs><path class="cls-1" d="M-248.49,86a17.26,17.26,0,0,1-12.89,5.56,17.21,17.21,0,0,1-12.34-5c-4.55-4.54-4.55-9.29-4.55-19.53s0-15,4.55-19.53a17.07,17.07,0,0,1,12.34-5c9.23,0,15.46,6,16.89,14.44h-5.16c-1.35-6.1-5.69-9.83-11.73-9.83a11.67,11.67,0,0,0-8.34,3.46c-3,3.12-3.39,6.37-3.39,16.48s.34,13.43,3.39,16.55A11.61,11.61,0,0,0-261.38,87a11.79,11.79,0,0,0,9.16-4.14c2-2.37,2.71-5,2.71-8.75V70.4h-11.87V65.85h17v7.67C-244.36,79.08-245.51,82.81-248.49,86Z" transform="translate(279.77 264.04)"/><path class="cls-1" d="M-229.06,91.15V42.86h5.16V91.15Z" transform="translate(279.77 264.04)"/><path class="cls-1" d="M-176.43,91.15l-25.63-38.72V91.15h-5.16V42.86h4.89l25.63,38.59V42.86h5.16V91.15Z" transform="translate(279.77 264.04)"/><path class="cls-1" d="M-154,91.15V42.86h5.15V91.15Z" transform="translate(279.77 264.04)"/><path class="cls-1" d="M-102.84,86.54a17.1,17.1,0,0,1-12.34,5,17.1,17.1,0,0,1-12.34-5c-4.55-4.54-4.55-9.29-4.55-19.53s0-15,4.55-19.53a17.06,17.06,0,0,1,12.34-5,17.06,17.06,0,0,1,12.34,5C-98.29,52-98.29,56.77-98.29,67S-98.29,82-102.84,86.54Zm-4-36a11.67,11.67,0,0,0-8.34-3.46,11.67,11.67,0,0,0-8.34,3.46c-3,3.12-3.39,6.37-3.39,16.48s.34,13.36,3.39,16.48A11.67,11.67,0,0,0-115.18,87a11.67,11.67,0,0,0,8.34-3.46c3-3.12,3.39-6.38,3.39-16.48S-103.79,53.65-106.84,50.53Z" transform="translate(279.77 264.04)"/><path class="cls-1" d="M-52.89,91.15-78.53,52.43V91.15h-5.15V42.86h4.88l25.64,38.59V42.86H-48V91.15Z" transform="translate(279.77 264.04)"/><path class="cls-1" d="M5.79,91.56C-4,91.56-11,84.84-11,75.21V42.86h5.16v32C-5.87,82.13-1.26,87,5.79,87s11.74-4.82,11.74-12.14V42.86h5.15V75.21C22.68,84.84,15.56,91.56,5.79,91.56Z" transform="translate(279.77 264.04)"/><path class="cls-1" d="M48.38,91.56c-7.26,0-12-1.83-16.55-6.38l3.53-3.52c4,4,7.73,5.29,13.16,5.29,7,0,11.39-3.33,11.39-9a7.75,7.75,0,0,0-2.31-6c-1.56-1.36-2.78-1.77-6.3-2.31l-5.63-.88a17.6,17.6,0,0,1-8.89-3.66c-2.44-2.17-3.66-5.16-3.66-9,0-8.21,5.9-13.63,15.46-13.63,6.18,0,10.24,1.56,14.38,5.29l-3.32,3.32c-3-2.71-6.17-4.14-11.26-4.14-6.44,0-10.17,3.6-10.17,9a7,7,0,0,0,2.17,5.56,13.89,13.89,0,0,0,6.51,2.64l5.29.82c4.54.67,6.78,1.62,8.82,3.39a12.08,12.08,0,0,1,4.06,9.56C65.06,86.34,58.42,91.56,48.38,91.56Z" transform="translate(279.77 264.04)"/><path class="cls-1" d="M75.84,91.15V42.86h30v4.62H81v17h21.16v4.61H81V86.54h24.82v4.61Z" transform="translate(279.77 264.04)"/><path class="cls-1" d="M145.29,86.67c-2.92,2.92-7.19,4.48-12.21,4.48H116.53V42.86h16.55c5,0,9.29,1.56,12.21,4.48,5,5,4.75,12.41,4.75,19.12S150.31,81.66,145.29,86.67ZM141.69,51c-2.51-2.58-5.76-3.52-9.49-3.52H121.69V86.54H132.2c3.73,0,7-1,9.49-3.53,3.33-3.46,3.19-10.65,3.19-16.55S145,54.46,141.69,51Z" transform="translate(279.77 264.04)"/><path class="cls-1" d="M204.11,91.56a17.23,17.23,0,0,1-12.34-5c-4.54-4.54-4.54-9.29-4.54-19.53s0-15,4.54-19.53a17.19,17.19,0,0,1,12.34-5c8.68,0,15.13,5.29,16.75,14.37h-5.29c-1.28-5.9-5.42-9.76-11.46-9.76a11.63,11.63,0,0,0-8.34,3.39c-3.05,3.12-3.39,6.44-3.39,16.55s.34,13.43,3.39,16.55A11.63,11.63,0,0,0,204.11,87c6,0,10.31-3.87,11.6-9.77h5.15C219.3,86.27,212.73,91.56,204.11,91.56Z" transform="translate(279.77 264.04)"/><path class="cls-1" d="M259.72,91.15l-3.86-10.92h-21.1L230.9,91.15h-5.49l17.76-48.29h4.34l17.71,48.29ZM245.41,50.26l-9.09,25.5h18Z" transform="translate(279.77 264.04)"/><path class="cls-1" d="M300.75,91.15l-11-21.43H278.17V91.15H273V42.86h18.52c8.41,0,14.31,5.09,14.31,13.43,0,7.05-4.28,11.67-10.52,13l11.47,21.9Zm-9.7-43.67H278.17v17.7h12.88c5.63,0,9.63-2.92,9.63-8.82S296.68,47.48,291.05,47.48Z" transform="translate(279.77 264.04)"/><path class="cls-1" d="M329.91,91.56c-7.26,0-12-1.83-16.55-6.38l3.53-3.52c4,4,7.73,5.29,13.15,5.29,7.06,0,11.4-3.33,11.4-9a7.75,7.75,0,0,0-2.31-6c-1.56-1.36-2.78-1.77-6.31-2.31l-5.62-.88a17.56,17.56,0,0,1-8.89-3.66c-2.44-2.17-3.66-5.16-3.66-9,0-8.21,5.9-13.63,15.46-13.63,6.17,0,10.24,1.56,14.38,5.29l-3.32,3.32c-3-2.71-6.18-4.14-11.26-4.14-6.44,0-10.17,3.6-10.17,9a7,7,0,0,0,2.17,5.56,13.89,13.89,0,0,0,6.51,2.64l5.29.82c4.54.67,6.78,1.62,8.81,3.39a12.06,12.06,0,0,1,4.07,9.56C346.59,86.34,340,91.56,329.91,91.56Z" transform="translate(279.77 264.04)"/><path class="cls-2" d="M152-197.1c3.56-16.68,2.65-35.78,2.65-35.78l-8.36-4.88C144.44-238.84,100.64-264,34.15-264S-76.17-238.92-78-237.85L-86.35-233l-.05,9.66c0,2.13.09,52.68,33.3,110.25s76.91,83,78.76,84l8.4,4.79h0l8.4-4.8c1.85-1.05,45.6-26.47,78.81-83.95a259,259,0,0,0,27.18-67.22.06.06,0,0,1,0,0h-.06c-1-.69-49.7-32.93-114.25-33l0,34.13c37.44,0,64.38,9.86,74.18,14.06A223.91,223.91,0,0,1,91.92-130C71.67-94.91,46.83-73.66,34.08-64.23h0C21.33-73.64-3.48-94.9-23.73-130s-26.22-67.23-28-83c14.52-6.32,45.33-17.18,85.87-17.17C103.44-230.11,152-197.1,152-197.1Z" transform="translate(279.77 264.04)"/></svg>