<svg width="19" height="20" viewBox="0 0 19 20" fill="none" xmlns="http://www.w3.org/2000/svg">
<path d="M9.48388 0.636841C4.30388 0.636841 0.103882 4.83684 0.103882 10.0168C0.103882 15.1968 4.30388 19.3968 9.48388 19.3968C14.6639 19.3968 18.8639 15.1968 18.8639 10.0168C18.8639 4.83684 14.6639 0.636841 9.48388 0.636841ZM9.48388 18.1368C5.00388 18.1368 1.36388 14.4968 1.36388 10.0168C1.36388 5.53684 5.00388 1.89684 9.48388 1.89684C13.9639 1.89684 17.6039 5.53684 17.6039 10.0168C17.6039 14.4968 13.9639 18.1368 9.48388 18.1368ZM13.2039 9.39684H10.0839V6.29684C10.0839 5.93684 9.82388 5.63684 9.48388 5.63684C9.14388 5.63684 8.86388 5.93684 8.86388 6.29684V9.39684H5.76388C5.40388 9.39684 5.10388 9.67684 5.10388 10.0168C5.10388 10.3568 5.40388 10.6168 5.76388 10.6168H8.86388V13.7368C8.86388 14.0968 9.14388 14.3768 9.48388 14.3768C9.82388 14.3768 10.0839 14.0968 10.0839 13.7368V10.6168H13.2039C13.5639 10.6168 13.8639 10.3568 13.8639 10.0168C13.8639 9.67684 13.5639 9.39684 13.2039 9.39684Z" fill="#0584A0"/>
</svg>
