<svg width="20" height="19" viewBox="0 0 20 19" fill="none" xmlns="http://www.w3.org/2000/svg">
<path d="M17.7841 0.33667H2.91183C2.37396 0.33667 1.85812 0.545625 1.47779 0.917567C1.09746 1.28951 0.883789 1.79397 0.883789 2.31998L0.883789 16.8642C0.883789 17.3902 1.09746 17.8947 1.47779 18.2666C1.85812 18.6386 2.37396 18.8475 2.91183 18.8475H8.71076V12.5542H6.04896V9.5921H8.71076V7.33443C8.71076 4.76647 10.274 3.34799 12.6684 3.34799C13.8151 3.34799 15.0142 3.54797 15.0142 3.54797V6.06842H13.693C12.3912 6.06842 11.9852 6.85844 11.9852 7.6687V9.5921H14.8912L14.4265 12.5542H11.9852V18.8475H17.7841C18.322 18.8475 18.8379 18.6386 19.2182 18.2666C19.5985 17.8947 19.8122 17.3902 19.8122 16.8642V2.31998C19.8122 1.79397 19.5985 1.28951 19.2182 0.917567C18.8379 0.545625 18.322 0.33667 17.7841 0.33667Z" fill="white"/>
</svg>
