<svg width="20" height="20" viewBox="0 0 20 20" fill="none" xmlns="http://www.w3.org/2000/svg">
<path fill-rule="evenodd" clip-rule="evenodd" d="M10.1566 0.0144043C7.49862 0.0144043 7.16534 0.0256697 6.12145 0.0732992C5.07974 0.120812 4.36828 0.28627 3.74576 0.528224C3.10218 0.778298 2.55639 1.11295 2.01226 1.65703C1.46818 2.20116 1.13352 2.74695 0.883449 3.39053C0.641494 4.01306 0.476042 4.72451 0.42853 5.76622C0.380901 6.8101 0.369629 7.14339 0.369629 9.80139C0.369629 12.4594 0.380901 12.7926 0.42853 13.8365C0.476042 14.8782 0.641494 15.5897 0.883449 16.2122C1.13352 16.8558 1.46818 17.4016 2.01226 17.9457C2.55639 18.4898 3.10218 18.8244 3.74576 19.0746C4.36828 19.3165 5.07974 19.4819 6.12145 19.5294C7.16534 19.5771 7.49862 19.5883 10.1566 19.5883C12.8146 19.5883 13.1479 19.5771 14.1917 19.5294C15.2334 19.4819 15.9449 19.3165 16.5674 19.0746C17.211 18.8244 17.7568 18.4898 18.3009 17.9457C18.845 17.4016 19.1797 16.8558 19.4298 16.2122C19.6717 15.5897 19.8372 14.8782 19.8847 13.8365C19.9323 12.7926 19.9436 12.4594 19.9436 9.80139C19.9436 7.14339 19.9323 6.8101 19.8847 5.76622C19.8372 4.72451 19.6717 4.01306 19.4298 3.39053C19.1797 2.74695 18.845 2.20116 18.3009 1.65703C17.7568 1.11295 17.211 0.778298 16.5674 0.528224C15.9449 0.28627 15.2334 0.120812 14.1917 0.0732992C13.1479 0.0256697 12.8146 0.0144043 10.1566 0.0144043ZM10.1566 1.77782C12.7698 1.77782 13.0794 1.7878 14.1114 1.83489C15.0656 1.8784 15.5838 2.03784 15.9287 2.17187C16.3855 2.34941 16.7115 2.56149 17.054 2.90399C17.3965 3.24644 17.6085 3.57247 17.7861 4.0293C17.9201 4.37417 18.0796 4.89238 18.1231 5.8466C18.1702 6.87859 18.1801 7.18814 18.1801 9.80139C18.1801 12.4146 18.1702 12.7241 18.1231 13.7561C18.0796 14.7104 17.9201 15.2286 17.7861 15.5734C17.6085 16.0303 17.3965 16.3563 17.054 16.6988C16.7115 17.0413 16.3855 17.2533 15.9287 17.4309C15.5838 17.5649 15.0656 17.7243 14.1114 17.7679C13.0795 17.8149 12.77 17.8249 10.1566 17.8249C7.54318 17.8249 7.2337 17.8149 6.20182 17.7679C5.2476 17.7243 4.72939 17.5649 4.38452 17.4309C3.92769 17.2533 3.60166 17.0413 3.25921 16.6988C2.91675 16.3563 2.70463 16.0303 2.52709 15.5734C2.39306 15.2286 2.23362 14.7104 2.19011 13.7561C2.14303 12.7241 2.13304 12.4146 2.13304 9.80139C2.13304 7.18814 2.14303 6.87859 2.19011 5.8466C2.23362 4.89238 2.39306 4.37417 2.52709 4.0293C2.70463 3.57247 2.91671 3.24644 3.25921 2.90399C3.60166 2.56149 3.92769 2.34941 4.38452 2.17187C4.72939 2.03784 5.2476 1.8784 6.20182 1.83489C7.23382 1.7878 7.54337 1.77782 10.1566 1.77782ZM10.1566 4.77564C7.38095 4.77564 5.13086 7.02571 5.13086 9.80139C5.13086 12.577 7.38095 14.8271 10.1566 14.8271C12.9323 14.8271 15.1823 12.577 15.1823 9.80139C15.1823 7.02571 12.9323 4.77564 10.1566 4.77564ZM10.1566 13.0637C8.35486 13.0637 6.89427 11.6031 6.89427 9.80139C6.89427 7.99963 8.35486 6.53905 10.1566 6.53905C11.9583 6.53905 13.4189 7.99963 13.4189 9.80139C13.4189 11.6031 11.9583 13.0637 10.1566 13.0637ZM16.5553 4.57707C16.5553 5.2257 16.0295 5.75149 15.3809 5.75149C14.7323 5.75149 14.2065 5.2257 14.2065 4.57707C14.2065 3.92844 14.7323 3.40262 15.3809 3.40262C16.0295 3.40262 16.5553 3.92844 16.5553 4.57707Z" fill="white"/>
</svg>
