<svg width="143" height="60" viewBox="0 0 143 60" fill="none" xmlns="http://www.w3.org/2000/svg">
<g clip-path="url(#clip0)">
<path d="M81.5455 14.6334C80.4591 15.8218 79.0105 16.4481 77.4202 16.4481C75.9087 16.4481 74.5073 15.8699 73.4681 14.8101C72.0195 13.3327 72.0195 11.775 72.0195 8.43472C72.0195 5.0945 72.0195 3.53679 73.4681 2.05938C74.5231 0.999503 75.8772 0.421387 77.4202 0.421387C80.3646 0.421387 82.3643 2.3645 82.8209 5.14267H81.1676C80.7268 3.15138 79.3412 1.93091 77.4202 1.93091C76.3968 1.93091 75.4205 2.34844 74.7592 3.05503C73.783 4.06673 73.6728 5.14267 73.6728 8.43472C73.6728 11.7268 73.783 12.8188 74.7592 13.8305C75.4363 14.5371 76.4125 14.9385 77.4202 14.9385C78.5539 14.9385 79.6403 14.4728 80.3489 13.5896C80.9787 12.8188 81.2149 11.9516 81.2149 10.7311V9.54278H77.4202V8.06537H82.8681V10.5705C82.8681 12.3691 82.506 13.5896 81.5455 14.6334Z" fill="white"/>
<path d="M77.4202 16.7691C75.8299 16.7691 74.3498 16.1589 73.2476 15.0348C71.7046 13.461 71.7046 11.7748 71.7046 8.43461C71.7046 5.09438 71.7046 3.40821 73.2476 1.83445C74.3656 0.694273 75.7984 0.100098 77.4202 0.100098C80.3961 0.100098 82.6319 2.05927 83.1358 5.07832L83.1988 5.44767H80.9314L80.8842 5.19073C80.4748 3.34397 79.1994 2.23592 77.4359 2.23592C76.5069 2.23592 75.6095 2.60527 74.9954 3.26368C74.1136 4.17903 74.0034 5.1265 74.0034 8.41855C74.0034 11.7267 74.1136 12.6741 74.9954 13.5895C75.6095 14.2318 76.4912 14.6012 77.4359 14.6012C78.5066 14.6012 79.4828 14.1515 80.1284 13.3647C80.6952 12.6741 80.9314 11.9033 80.9314 10.715V9.84778H77.1368V7.72802H83.2145V10.5544C83.2145 12.4814 82.7894 13.7661 81.8132 14.8421C80.648 16.0786 79.1049 16.7691 77.4202 16.7691ZM77.4202 0.742449C75.9716 0.742449 74.6805 1.27239 73.6885 2.28409C72.3344 3.66515 72.3344 5.15862 72.3344 8.43461C72.3344 11.6945 72.3344 13.188 73.6885 14.5851C74.6647 15.5808 75.9874 16.1268 77.4202 16.1268C78.9475 16.1268 80.3016 15.5326 81.3093 14.4085C82.1911 13.445 82.5532 12.3369 82.5532 10.5544V8.37037H77.7351V9.20543H81.5297V10.715C81.5297 12.0478 81.2463 12.9632 80.585 13.7822C79.8292 14.7136 78.6798 15.2435 77.4202 15.2435C76.3023 15.2435 75.2473 14.81 74.523 14.0391C73.4523 12.915 73.3421 11.6785 73.3421 8.41855C73.3421 5.17468 73.4366 3.93815 74.523 2.81403C75.2631 2.04321 76.318 1.59357 77.4202 1.59357C79.4041 1.59357 80.8842 2.78192 81.4195 4.80532H82.443C81.8761 2.28409 79.9867 0.742449 77.4202 0.742449Z" fill="white"/>
<path d="M87.1982 16.3035V0.549805H88.8515V16.3035H87.1982Z" fill="white"/>
<path d="M89.1664 16.6245H86.8833V0.228516H89.1664V16.6245ZM87.5131 15.9822H88.5366V0.870867H87.5131V15.9822Z" fill="white"/>
<path d="M103.463 16.3035L95.2597 3.68127V16.3195H93.6064V0.549805H95.1652L103.369 13.1399V0.549805H105.022V16.3035H103.463Z" fill="white"/>
<path d="M105.337 16.6245H103.29L95.5746 4.74104V16.6245H93.2915V0.228516H95.3384L103.054 12.0799V0.228516H105.337V16.6245ZM103.636 15.9822H104.707V0.870867H103.683V14.1997L94.992 0.870867H93.9213V15.9822H94.9448V2.60522L103.636 15.9822Z" fill="white"/>
<path d="M109.872 16.3035V0.549805H111.525V16.3035H109.872Z" fill="white"/>
<path d="M111.84 16.6245H109.557V0.228516H111.84V16.6245ZM110.186 15.9822H111.21V0.870867H110.186V15.9822Z" fill="white"/>
<path d="M125.208 14.8101C124.168 15.8699 122.798 16.4481 121.255 16.4481C119.712 16.4481 118.343 15.8699 117.303 14.8101C115.855 13.3327 115.855 11.775 115.855 8.43472C115.855 5.0945 115.855 3.53679 117.303 2.05938C118.358 0.999503 119.728 0.421387 121.255 0.421387C122.783 0.421387 124.168 0.999503 125.208 2.05938C126.656 3.53679 126.656 5.0945 126.656 8.43472C126.656 11.775 126.656 13.3166 125.208 14.8101ZM123.932 3.05503C123.255 2.34844 122.279 1.93091 121.271 1.93091C120.248 1.93091 119.271 2.34844 118.61 3.05503C117.634 4.06673 117.524 5.14267 117.524 8.43472C117.524 11.7268 117.634 12.7867 118.61 13.8144C119.287 14.521 120.263 14.9385 121.271 14.9385C122.295 14.9385 123.271 14.521 123.932 13.8144C124.908 12.8027 125.019 11.7268 125.019 8.43472C125.019 5.14267 124.908 4.06673 123.932 3.05503Z" fill="white"/>
<path d="M121.255 16.7691C119.634 16.7691 118.201 16.1749 117.083 15.0348C115.54 13.461 115.54 11.7748 115.54 8.43461C115.54 5.09438 115.54 3.40821 117.083 1.83445C118.201 0.694273 119.649 0.100098 121.255 0.100098C122.861 0.100098 124.31 0.694273 125.428 1.83445C126.971 3.40821 126.971 5.09438 126.971 8.43461C126.971 11.7748 126.971 13.461 125.428 15.0348C124.326 16.1589 122.877 16.7691 121.255 16.7691ZM121.255 0.742449C119.807 0.742449 118.516 1.27239 117.524 2.28409C116.17 3.66515 116.17 5.15862 116.17 8.43461C116.17 11.6945 116.17 13.188 117.524 14.5851C118.516 15.5968 119.807 16.1268 121.255 16.1268C122.704 16.1268 123.995 15.5968 124.987 14.5851C126.341 13.2041 126.341 11.7106 126.341 8.43461C126.341 5.17468 126.341 3.68121 124.987 2.28409C123.995 1.27239 122.704 0.742449 121.255 0.742449ZM121.255 15.2596C120.153 15.2596 119.098 14.81 118.358 14.0391C117.288 12.915 117.177 11.6785 117.177 8.43461C117.177 5.19073 117.272 3.95421 118.358 2.83009C119.098 2.05927 120.153 1.60962 121.255 1.60962C122.358 1.60962 123.413 2.05927 124.153 2.83009C125.223 3.95421 125.333 5.19073 125.333 8.43461C125.333 11.6785 125.239 12.915 124.153 14.0391C123.413 14.81 122.358 15.2596 121.255 15.2596ZM121.255 2.25198C120.326 2.25198 119.429 2.62133 118.815 3.27974C117.933 4.19509 117.823 5.14256 117.823 8.43461C117.823 11.7267 117.933 12.6741 118.815 13.5895C119.445 14.2479 120.326 14.6172 121.255 14.6172C122.184 14.6172 123.082 14.2479 123.696 13.5895C124.578 12.6741 124.688 11.7267 124.688 8.43461C124.688 5.14256 124.578 4.19509 123.696 3.27974C123.082 2.62133 122.184 2.25198 121.255 2.25198Z" fill="white"/>
<path d="M140.906 16.3035L132.702 3.66521V16.3035H131.049V0.549805H132.608L140.811 13.1399V0.549805H142.465V16.3035H140.906Z" fill="white"/>
<path d="M142.779 16.6245H140.732L133.017 4.74104V16.6245H130.734V0.228516H132.781L140.496 12.0799V0.228516H142.779V16.6245ZM141.063 15.9822H142.134V0.870867H141.11V14.1997L132.419 0.870867H131.348V15.9822H132.372V2.60522L141.063 15.9822Z" fill="white"/>
<path d="M77.3888 37.6136C74.2712 37.6136 72.0039 35.4296 72.0039 32.2821V21.7314H73.6572V32.1536C73.6572 34.5464 75.1372 36.1201 77.3888 36.1201C79.6404 36.1201 81.1363 34.5464 81.1363 32.1536V21.7314H82.7895V32.2821C82.7895 35.4135 80.5064 37.6136 77.3888 37.6136Z" fill="white"/>
<path d="M77.3888 37.9347C74.0823 37.9347 71.689 35.558 71.689 32.282V21.4102H73.9721V32.1535C73.9721 34.3696 75.3104 35.7988 77.3888 35.7988C79.4829 35.7988 80.8213 34.3696 80.8213 32.1535V21.4102H83.1044V32.282C83.1044 35.558 80.6953 37.9347 77.3888 37.9347ZM72.3188 22.0365V32.2659C72.3188 35.2207 74.3972 37.2762 77.3888 37.2762C80.3804 37.2762 82.4746 35.2207 82.4746 32.2659V22.0365H81.4511V32.1374C81.4511 34.6908 79.8136 36.4251 77.3888 36.4251C74.964 36.4251 73.3422 34.7068 73.3422 32.1374V22.0365H72.3188Z" fill="white"/>
<path d="M97.291 37.6135C94.9764 37.6135 93.4491 37.0194 92.0005 35.5259L93.1342 34.3697C94.4095 35.6704 95.6062 36.088 97.3382 36.088C99.5898 36.088 100.975 34.996 100.975 33.1652C100.975 32.3463 100.739 31.6397 100.235 31.19C99.7315 30.7404 99.3536 30.6119 98.2199 30.4353L96.425 30.1462C95.2126 29.9535 94.2521 29.552 93.575 28.9578C92.7878 28.2513 92.4099 27.2717 92.4099 26.0191C92.4099 23.3373 94.2993 21.5708 97.3539 21.5708C99.3221 21.5708 100.629 22.0847 101.952 23.2891L100.881 24.3811C99.9204 23.4979 98.9127 23.0322 97.2752 23.0322C95.2126 23.0322 94.0159 24.2044 94.0159 25.9549C94.0159 26.7257 94.2363 27.352 94.7087 27.7695C95.1811 28.187 95.9841 28.4921 96.7871 28.6367L98.4719 28.9097C99.9204 29.1345 100.645 29.4396 101.29 30.0177C102.141 30.7404 102.597 31.8324 102.597 33.1331C102.629 35.9113 100.487 37.6135 97.291 37.6135Z" fill="white"/>
<path d="M97.2909 37.9347C94.8819 37.9347 93.2916 37.3084 91.78 35.7668L91.5596 35.5419L93.1341 33.9361L93.3546 34.1609C94.5197 35.3492 95.6061 35.7989 97.3381 35.7989C99.4165 35.7989 100.66 34.8193 100.66 33.1974C100.66 32.6674 100.55 31.9287 100.031 31.463C99.5897 31.0776 99.2591 30.9652 98.1726 30.7885L96.3777 30.4995C95.1023 30.2907 94.0946 29.8571 93.3703 29.2308C92.52 28.46 92.0949 27.3841 92.0949 26.0512C92.0949 23.1606 94.1576 21.2817 97.3539 21.2817C99.3693 21.2817 100.771 21.8117 102.172 23.0964L102.424 23.3212L100.912 24.8628L100.692 24.6541C99.7157 23.7548 98.7395 23.3854 97.3066 23.3854C95.4644 23.3854 94.3623 24.365 94.3623 25.987C94.3623 26.6936 94.5512 27.2074 94.9448 27.5607C95.3542 27.914 96.0943 28.2191 96.8658 28.3476L98.5505 28.6206C99.9991 28.8454 100.802 29.1666 101.526 29.809C102.455 30.6119 102.944 31.7681 102.944 33.1652C102.944 36.0558 100.723 37.9347 97.2909 37.9347ZM92.4413 35.5259C93.7639 36.7945 95.1653 37.2924 97.2909 37.2924C100.393 37.2924 102.314 35.7025 102.314 33.1492C102.314 31.9448 101.904 30.9491 101.117 30.2747C100.487 29.7126 99.7787 29.4396 98.4561 29.2469L96.7556 28.9739C95.8423 28.8294 95.0078 28.4761 94.5197 28.0425C93.9844 27.5768 93.7167 26.8863 93.7167 25.987C93.7167 24.0117 95.118 22.7431 97.2909 22.7431C98.771 22.7431 99.8574 23.1124 100.881 23.9796L101.495 23.3533C100.298 22.3416 99.1016 21.9241 97.3539 21.9241C94.504 21.9241 92.7247 23.4979 92.7247 26.0512C92.7247 27.2235 93.0711 28.1067 93.7954 28.7491C94.4095 29.2951 95.3227 29.6805 96.4721 29.8732L98.2671 30.1623C99.4008 30.3389 99.8732 30.4834 100.44 30.9973C100.991 31.4951 101.29 32.2499 101.29 33.2134C101.29 35.2208 99.7787 36.4573 97.3381 36.4573C95.5432 36.4573 94.3465 36.0077 93.1341 34.8675L92.4413 35.5259Z" fill="white"/>
<path d="M112.422 37.4849V21.7312H122.011V23.2407H114.076V28.7971H120.846V30.3066H114.076V35.9914H122.011V37.5009H112.422V37.4849Z" fill="white"/>
<path d="M122.326 37.8061H112.107V21.394H122.326V23.5459H114.391V28.4599H121.161V30.6118H114.391V35.6543H122.326V37.8061ZM112.737 37.1638H121.696V36.2966H113.761V29.9694H120.531V29.1023H113.761V22.9036H121.696V22.0364H112.737V37.1638Z" fill="white"/>
<path d="M140.953 36.0235C140.024 36.971 138.654 37.4849 137.048 37.4849H131.758V21.7312H137.048C138.654 21.7312 140.024 22.2451 140.953 23.1926C142.559 24.8305 142.465 27.2394 142.465 29.4394C142.48 31.6074 142.559 34.3855 140.953 36.0235ZM139.804 24.3809C139.001 23.5458 137.962 23.2247 136.765 23.2247H133.395V35.9754H136.765C137.962 35.9754 139.001 35.6702 139.804 34.8191C140.874 33.695 140.827 31.3504 140.827 29.4234C140.827 27.4963 140.874 25.505 139.804 24.3809Z" fill="white"/>
<path d="M137.048 37.8061H131.443V21.394H137.048C138.749 21.394 140.182 21.924 141.174 22.9517C142.795 24.6058 142.795 26.9986 142.78 29.1023V29.4234V29.7446C142.78 31.8965 142.795 34.5944 141.174 36.2484C140.182 37.2601 138.749 37.8061 137.048 37.8061ZM132.073 37.1638H137.048C138.576 37.1638 139.851 36.6981 140.733 35.7988C142.166 34.3374 142.166 31.8001 142.166 29.7607V29.4395V29.1183C142.166 27.0467 142.181 24.8949 140.733 23.4335C139.851 22.5342 138.576 22.0685 137.048 22.0685H132.073V37.1638ZM136.765 36.2966H133.08V22.9036H136.765C138.166 22.9036 139.221 23.305 140.024 24.1562C141.142 25.3284 141.126 27.3037 141.126 29.1986V29.4234V29.6483C141.126 31.6235 141.126 33.8717 140.024 35.044C139.237 35.8791 138.166 36.2966 136.765 36.2966ZM133.726 35.6543H136.781C137.993 35.6543 138.922 35.317 139.599 34.5944C140.528 33.5987 140.528 31.3987 140.528 29.6322V29.4074V29.1826C140.528 27.4 140.528 25.5693 139.599 24.5737C138.922 23.8671 138.009 23.5138 136.781 23.5138H133.726V35.6543Z" fill="white"/>
<path d="M77.2156 58.7791C75.7041 58.7791 74.3027 58.201 73.2635 57.1411C71.8149 55.6637 71.8149 54.106 71.8149 50.7658C71.8149 47.4255 71.8149 45.8678 73.2635 44.3904C74.3027 43.3306 75.6883 42.7524 77.2156 42.7524C79.9868 42.7524 82.0495 44.4707 82.5691 47.4416H80.8843C80.4749 45.5145 79.1523 44.262 77.2156 44.262C76.1922 44.262 75.216 44.6634 74.5546 45.37C73.5784 46.3817 73.4682 47.4737 73.4682 50.7658C73.4682 54.0578 73.5784 55.1498 74.5546 56.1615C75.2317 56.8681 76.2079 57.2696 77.2156 57.2696C79.1523 57.2696 80.5064 56.0009 80.9315 54.0899H82.5848C82.0652 57.0608 79.9711 58.7791 77.2156 58.7791Z" fill="white"/>
<path d="M77.2156 59.1002C75.6253 59.1002 74.1452 58.4899 73.0431 57.3658C71.5 55.7921 71.5 54.1059 71.5 50.7657C71.5 47.4254 71.5 45.7393 73.0431 44.1655C74.1452 43.0414 75.6253 42.4312 77.2156 42.4312C80.1757 42.4312 82.3486 44.3261 82.884 47.3933L82.9469 47.7787H80.6166L80.5694 47.5218C80.1757 45.6911 78.9161 44.583 77.2156 44.583C76.2709 44.583 75.3891 44.9524 74.775 45.5947C73.8933 46.5101 73.7831 47.4576 73.7831 50.7657C73.7831 54.0738 73.8933 55.0212 74.775 55.9366C75.3891 56.5789 76.2709 56.9483 77.2156 56.9483C78.9476 56.9483 80.223 55.8563 80.6166 54.0095L80.6638 53.7526H82.9469L82.884 54.1219C82.3644 57.2052 80.1915 59.1002 77.2156 59.1002ZM77.2156 43.0735C75.7828 43.0735 74.4601 43.6195 73.4839 44.6151C72.1298 45.9962 72.1298 47.4897 72.1298 50.7657C72.1298 54.0256 72.1298 55.5191 73.4839 56.9162C74.4601 57.9118 75.7828 58.4578 77.2156 58.4578C79.7506 58.4578 81.6243 56.9162 82.1912 54.411H81.1677C80.6481 56.3862 79.1523 57.5906 77.2156 57.5906C76.0977 57.5906 75.0427 57.1571 74.3184 56.3862C73.2477 55.2621 73.1375 54.0256 73.1375 50.7657C73.1375 47.5057 73.232 46.2692 74.3184 45.1451C75.0427 44.3743 76.0977 43.9407 77.2156 43.9407C79.168 43.9407 80.6166 45.129 81.1362 47.1203H82.1912C81.5928 44.583 79.7664 43.0735 77.2156 43.0735Z" fill="white"/>
<path d="M101.857 58.6506L100.613 55.0856H93.8584L92.6146 58.6506H90.8511L96.5352 42.897H97.9208L103.589 58.6506H101.857ZM97.2752 45.3058L94.3623 53.6242H100.141L97.2752 45.3058Z" fill="white"/>
<path d="M104.062 58.9717H101.637L100.393 55.4067H94.0947L92.8508 58.9717H90.426L96.3463 42.5757H98.1728L104.062 58.9717ZM102.078 58.3294H103.164L97.7319 43.218H96.7872L91.3235 58.3294H92.41L93.6538 54.7643H100.85L102.078 58.3294ZM100.582 53.9453H93.9215L97.2753 44.3422L100.582 53.9453ZM94.819 53.303H99.7001L97.2753 46.2692L94.819 53.303Z" fill="white"/>
<path d="M120.767 58.6506L117.256 51.649H113.54V58.6345H111.887V42.8809H117.807C120.5 42.8809 122.389 44.5349 122.389 47.2649C122.389 49.5613 121.019 51.0708 119.02 51.4884L122.688 58.6345H120.767V58.6506ZM117.666 44.3904H113.54V50.1715H117.666C119.461 50.1715 120.752 49.2241 120.752 47.297C120.752 45.37 119.476 44.3904 117.666 44.3904Z" fill="white"/>
<path d="M123.224 58.9717H120.579L117.067 51.9701H113.871V58.9557H111.588V42.5757H117.823C120.752 42.5757 122.72 44.4706 122.72 47.2809C122.72 49.4649 121.508 51.135 119.508 51.7131L123.224 58.9717ZM120.972 58.3294H122.185L118.563 51.2796L118.972 51.1993C120.925 50.7817 122.09 49.3204 122.09 47.2809C122.09 44.8079 120.421 43.218 117.823 43.218H112.218V58.3294H113.241V51.3277H117.461L120.972 58.3294ZM117.666 50.4927H113.225V44.0691H117.666C119.76 44.0691 121.067 45.3057 121.067 47.297C121.067 49.2722 119.76 50.4927 117.666 50.4927ZM113.871 49.8503H117.681C119.445 49.8503 120.453 48.9189 120.453 47.297C120.453 45.659 119.445 44.7115 117.681 44.7115H113.871V49.8503Z" fill="white"/>
<path d="M137.347 58.7791C135.033 58.7791 133.505 58.1849 132.057 56.6914L133.191 55.5352C134.466 56.8359 135.663 57.2535 137.395 57.2535C139.646 57.2535 141.048 56.1615 141.048 54.3308C141.048 53.5118 140.811 52.8052 140.307 52.3555C139.804 51.9059 139.41 51.7774 138.292 51.6008L136.497 51.3117C135.285 51.119 134.324 50.7175 133.647 50.1234C132.86 49.4168 132.482 48.4372 132.482 47.1846C132.482 44.5028 134.371 42.7363 137.426 42.7363C139.394 42.7363 140.701 43.2502 142.024 44.4546L140.953 45.5466C139.993 44.6634 138.985 44.1977 137.347 44.1977C135.285 44.1977 134.088 45.37 134.088 47.1204C134.088 47.8912 134.308 48.5175 134.781 48.935C135.253 49.3526 136.056 49.6577 136.859 49.8022L138.544 50.0752C139.993 50.3 140.717 50.6051 141.362 51.1833C142.213 51.9059 142.669 52.9979 142.669 54.2987C142.685 57.0768 140.544 58.7791 137.347 58.7791Z" fill="white"/>
<path d="M137.347 59.1002C134.938 59.1002 133.348 58.4739 131.836 56.9323L131.616 56.7075L133.191 55.1016L133.411 55.3264C134.576 56.5148 135.663 56.9644 137.395 56.9644C139.473 56.9644 140.733 55.9848 140.733 54.3629C140.733 53.6081 140.512 52.9979 140.103 52.6285C139.662 52.2431 139.331 52.1307 138.245 51.9541L136.45 51.665C135.174 51.4562 134.167 51.0227 133.442 50.3964C132.592 49.6255 132.167 48.5496 132.167 47.2167C132.167 44.3261 134.23 42.4473 137.426 42.4473C139.441 42.4473 140.843 42.9772 142.244 44.2619L142.496 44.4867L140.984 46.0284L140.764 45.8196C139.788 44.9203 138.812 44.551 137.379 44.551C135.537 44.551 134.434 45.5306 134.434 47.1525C134.434 47.8591 134.623 48.373 135.017 48.7263C135.426 49.0795 136.166 49.3847 136.938 49.5131L138.623 49.7861C140.071 50.011 140.874 50.3321 141.599 50.9745C142.528 51.7774 143.016 52.9337 143.016 54.3308C143 57.2214 140.78 59.1002 137.347 59.1002ZM132.498 56.6914C133.82 57.9601 135.222 58.4579 137.347 58.4579C140.449 58.4579 142.37 56.8681 142.37 54.3147C142.37 53.1103 141.961 52.1147 141.173 51.4402C140.544 50.8781 139.835 50.6051 138.512 50.4124L136.812 50.1394C135.899 49.9949 135.064 49.6416 134.576 49.208C134.041 48.7423 133.773 48.0518 133.773 47.1525C133.773 45.1773 135.174 43.9086 137.347 43.9086C138.827 43.9086 139.914 44.278 140.937 45.1451L141.551 44.5188C140.355 43.5071 139.158 43.0896 137.41 43.0896C134.56 43.0896 132.781 44.6634 132.781 47.2167C132.781 48.389 133.128 49.2723 133.852 49.9146C134.466 50.4606 135.379 50.846 136.529 51.0387L138.324 51.3278C139.457 51.5044 139.93 51.649 140.496 52.1628C141.047 52.6446 141.347 53.4315 141.347 54.3789C141.347 56.3863 139.835 57.6228 137.379 57.6228C135.584 57.6228 134.387 57.1732 133.175 56.033L132.498 56.6914Z" fill="white"/>
<path d="M57.3449 16.6086C58.1951 12.5136 57.9747 7.82441 57.9747 7.82441L55.9593 6.62C55.5341 6.36306 45.0004 0.18042 29.0031 0.18042C13.0057 0.18042 2.45629 6.347 2.01542 6.60394L0.0157454 7.80835L0 10.169C0 10.6829 0.031491 23.0963 8.01442 37.2281C15.9974 51.3598 26.5153 57.5906 26.9562 57.8475L28.9716 59.0198L30.987 57.8475C31.4279 57.5906 41.9616 51.3598 49.9445 37.2441C53.3928 31.1578 55.3609 25.3927 56.4789 20.7517C56.4789 20.7517 56.4789 20.7517 56.4789 20.7357H56.4631C56.2112 20.559 44.4966 12.6581 28.9716 12.642V21.0247C37.978 21.0247 44.4651 23.4496 46.8112 24.4774C45.8507 27.1592 44.5753 30.0819 42.8748 33.0849C38.0095 41.6763 32.0262 46.8955 28.9558 49.2079C25.8855 46.8955 19.918 41.6763 15.0526 33.0688C10.203 24.4613 8.77021 16.5764 8.34508 12.7063C11.8406 11.1486 19.2567 8.48282 29.0031 8.49887C45.6775 8.49887 57.3449 16.6086 57.3449 16.6086Z" fill="white"/>
</g>
<defs>
<clipPath id="clip0">
<rect y="0.100098" width="143" height="59" fill="white"/>
</clipPath>
</defs>
</svg>
