<svg width="17" height="17" viewBox="0 0 17 17" fill="none" xmlns="http://www.w3.org/2000/svg">
<path d="M15.1786 0.1875H1.82143C1.33836 0.1875 0.875068 0.375167 0.533484 0.709216C0.1919 1.04327 0 1.49633 0 1.96875L0 15.0312C0 15.5037 0.1919 15.9567 0.533484 16.2908C0.875068 16.6248 1.33836 16.8125 1.82143 16.8125H7.02958V11.1604H4.63895V8.5H7.02958V6.47234C7.02958 4.166 8.43359 2.89203 10.584 2.89203C11.6139 2.89203 12.6908 3.07164 12.6908 3.07164V5.33531H11.5042C10.3351 5.33531 9.97042 6.04484 9.97042 6.77256V8.5H12.5804L12.163 11.1604H9.97042V16.8125H15.1786C15.6616 16.8125 16.1249 16.6248 16.4665 16.2908C16.8081 15.9567 17 15.5037 17 15.0312V1.96875C17 1.49633 16.8081 1.04327 16.4665 0.709216C16.1249 0.375167 15.6616 0.1875 15.1786 0.1875Z" fill="#515456"/>
</svg>
