<svg width="18" height="19" viewBox="0 0 18 19" fill="none" xmlns="http://www.w3.org/2000/svg">
<path fill-rule="evenodd" clip-rule="evenodd" d="M8.78991 0.723572C6.4027 0.723572 6.10337 0.733689 5.16584 0.776467C4.23026 0.819139 3.59128 0.96774 3.03218 1.18504C2.45416 1.40964 1.96398 1.7102 1.47529 2.19885C0.98663 2.68754 0.686069 3.17773 0.461473 3.75575C0.244168 4.31485 0.0955723 4.95382 0.0529004 5.8894C0.0101233 6.82693 0 7.12627 0 9.51348C0 11.9006 0.0101233 12.2 0.0529004 13.1375C0.0955723 14.0731 0.244168 14.7121 0.461473 15.2712C0.686069 15.8492 0.98663 16.3394 1.47529 16.8281C1.96398 17.3167 2.45416 17.6173 3.03218 17.8419C3.59128 18.0592 4.23026 18.2078 5.16584 18.2505C6.10337 18.2932 6.4027 18.3033 8.78991 18.3033C11.1771 18.3033 11.4764 18.2932 12.4139 18.2505C13.3495 18.2078 13.9885 18.0592 14.5476 17.8419C15.1256 17.6173 15.6158 17.3167 16.1045 16.8281C16.5931 16.3394 16.8937 15.8492 17.1183 15.2712C17.3356 14.7121 17.4842 14.0731 17.5269 13.1375C17.5697 12.2 17.5798 11.9006 17.5798 9.51348C17.5798 7.12627 17.5697 6.82693 17.5269 5.8894C17.4842 4.95382 17.3356 4.31485 17.1183 3.75575C16.8937 3.17773 16.5931 2.68754 16.1045 2.19885C15.6158 1.7102 15.1256 1.40964 14.5476 1.18504C13.9885 0.96774 13.3495 0.819139 12.4139 0.776467C11.4764 0.733689 11.1771 0.723572 8.78991 0.723572ZM8.78991 2.30733C11.1369 2.30733 11.4149 2.3163 12.3418 2.35859C13.1988 2.39767 13.6642 2.54086 13.9739 2.66124C14.3842 2.82069 14.677 3.01116 14.9846 3.31877C15.2922 3.62634 15.4826 3.91915 15.6421 4.32944C15.7625 4.63917 15.9057 5.10458 15.9447 5.96159C15.987 6.88845 15.996 7.16646 15.996 9.51348C15.996 11.8605 15.987 12.1385 15.9447 13.0653C15.9057 13.9223 15.7625 14.3877 15.6421 14.6975C15.4826 15.1078 15.2922 15.4006 14.9846 15.7081C14.677 16.0158 14.3842 16.2062 13.9739 16.3657C13.6642 16.4861 13.1988 16.6293 12.3418 16.6683C11.415 16.7106 11.1371 16.7196 8.78991 16.7196C6.44272 16.7196 6.16477 16.7106 5.23802 16.6683C4.38101 16.6293 3.9156 16.4861 3.60586 16.3657C3.19557 16.2062 2.90276 16.0158 2.59519 15.7081C2.28762 15.4006 2.09712 15.1078 1.93766 14.6975C1.81729 14.3877 1.67409 13.9223 1.63502 13.0653C1.59273 12.1385 1.58376 11.8605 1.58376 9.51348C1.58376 7.16646 1.59273 6.88845 1.63502 5.96159C1.67409 5.10458 1.81729 4.63917 1.93766 4.32944C2.09712 3.91915 2.28759 3.62634 2.59519 3.31877C2.90276 3.01116 3.19557 2.82069 3.60586 2.66124C3.9156 2.54086 4.38101 2.39767 5.23802 2.35859C6.16488 2.3163 6.4429 2.30733 8.78991 2.30733ZM8.78991 4.99974C6.29702 4.99974 4.27617 7.02058 4.27617 9.51348C4.27617 12.0063 6.29702 14.0272 8.78991 14.0272C11.2828 14.0272 13.3036 12.0063 13.3036 9.51348C13.3036 7.02058 11.2828 4.99974 8.78991 4.99974ZM8.78991 12.4434C7.17171 12.4434 5.85992 11.1316 5.85992 9.51348C5.85992 7.89528 7.17171 6.5835 8.78991 6.5835C10.4081 6.5835 11.7198 7.89528 11.7198 9.51348C11.7198 11.1316 10.4081 12.4434 8.78991 12.4434ZM14.5367 4.8214C14.5367 5.40395 14.0645 5.87618 13.4819 5.87618C12.8994 5.87618 12.4272 5.40395 12.4272 4.8214C12.4272 4.23886 12.8994 3.7666 13.4819 3.7666C14.0645 3.7666 14.5367 4.23886 14.5367 4.8214Z" fill="#515456"/>
</svg>
